<svg xmlns="http://www.w3.org/2000/svg" viewBox="0 0 96 96" role="img" aria-label="Camera icon">
  <defs>
    <linearGradient id="camBody" x1="0" y1="0" x2="0" y2="1">
      <stop offset="0%" stop-color="#2f3b4a"/>
      <stop offset="100%" stop-color="#1b2430"/>
    </linearGradient>
    <linearGradient id="lensRing" x1="0" y1="0" x2="1" y2="1">
      <stop offset="0%" stop-color="#9aa3a8"/>
      <stop offset="100%" stop-color="#4b545c"/>
    </linearGradient>

    <radialGradient id="lensGlass" cx="40%" cy="35%" r="70%">
      <stop offset="0%" stop-color="#b9d2cc"/>
      <stop offset="55%" stop-color="#5f7f79"/>
      <stop offset="100%" stop-color="#1f3b44"/>
    </radialGradient>

    <filter id="softShadow" x="-20%" y="-20%" width="140%" height="140%">
      <feDropShadow dx="0" dy="2" stdDeviation="2" flood-color="#000" flood-opacity="0.35"/>
    </filter>
  </defs>

  <g filter="url(#softShadow)">
    <path fill="url(#camBody)" d="M18 30h12l6-10h24l6 10h12a8 8 0 0 1 8 8v26a10 10 0 0 1-10 10H20A10 10 0 0 1 10 64V38a8 8 0 0 1 8-8z"/>

    <path fill="#202a36" d="M38 20h20l5 10H33l5-10z"/>
    <path fill="#141c26" d="M42 18h12l4 8H38l4-8z"/>
    <path d="M16 42c2-5 8-8 16-8" fill="none" stroke="#ffffff" stroke-opacity="0.1" stroke-width="3" stroke-linecap="round"/>
  </g>

  <g>
    <circle cx="52" cy="54" r="20" fill="url(#lensRing)"/>
    <circle cx="52" cy="54" r="17" fill="#0f1720"/>
    <circle cx="52" cy="54" r="14.5" fill="url(#lensGlass)"/>

    <circle cx="52" cy="54" r="12.5" fill="none" stroke="#d3e3df" stroke-opacity="0.25"/>
    <circle cx="52" cy="54" r="10.5" fill="none" stroke="#d3e3df" stroke-opacity="0.15"/>

    <path d="M45 46c3-3 9-4 14-2" fill="none" stroke="#e6f2ef" stroke-opacity="0.35" stroke-width="2.5" stroke-linecap="round"/>
    <path d="M44 50c2-2 6-3 10-2" fill="none" stroke="#e6f2ef" stroke-opacity="0.18" stroke-width="2" stroke-linecap="round"/>
  </g>

</svg>
